<?xml version="1.0" encoding="UTF-8"?>
<!DOCTYPE svg PUBLIC "-//W3C//DTD SVG 1.1//EN" "http://www.w3.org/Graphics/SVG/1.1/DTD/svg11.dtd">
<!-- Creator: CorelDRAW -->
<svg xmlns="http://www.w3.org/2000/svg" xml:space="preserve" width="1.70666in" height="1.70666in" style="shape-rendering:geometricPrecision; text-rendering:geometricPrecision; image-rendering:optimizeQuality; fill-rule:evenodd; clip-rule:evenodd"
viewBox="0 0 1.70666 1.70666"
 xmlns:xlink="http://www.w3.org/1999/xlink">
 <defs>
  <style type="text/css">
   <![CDATA[
    .fil0 {fill:black}
   ]]>
  </style>
 </defs>
 <g id="Layer_x0020_1">
  <metadata id="CorelCorpID_0Corel-Layer"/>
  <g id="_486326560">
   <g>
    <g id="_486323560">
     <path id="_454376880" class="fil0" d="M1.51326 1.45216l-1.31987 0c-0.0492598,0 -0.0893346,-0.0400748 -0.0893346,-0.0893346l0 -0.795311c0,-0.0492598 0.0400748,-0.0893346 0.0893346,-0.0893346l0.182453 0c0.00574016,0 0.011248,0.00228346 0.0153071,0.00634252 0.00405906,0.00405906 0.00634252,0.00956693 0.00634252,0.0153071l0 0.0293189 0.112992 0.0203976c0.00871654,0.0015748 0.0155984,0.00829921 0.0173661,0.0169764 0.00264567,0.0129606 0.00609449,0.0258583 0.010252,0.0383228 0.00280315,0.00840157 0.000208661,0.0176614 -0.00655512,0.023378l-0.0876378 0.0741457 0.029311 0.0507638 0.108134 -0.0388622c0.00832677,-0.00299606 0.0176339,-0.00061811 0.0235118,0.006 0.00877953,0.0098937 0.0182087,0.0193268 0.0280197,0.0280315 0.00662205,0.00587402 0.009,0.015189 0.00600787,0.0235157l-0.0388661 0.108126 0.0507638 0.029311 0.0741535 -0.0876417c0.00572047,-0.00676378 0.0149803,-0.00935433 0.023378,-0.00655512 0.0125748,0.00419291 0.0254724,0.00764567 0.0383228,0.0102677 0.00867717,0.00176772 0.0154055,0.00864961 0.0169803,0.0173661l0.0203937 0.11298 0.058626 0 0.0203937 -0.112988c0.00157087,-0.00871654 0.00829134,-0.0155984 0.0169724,-0.0173661 0.0129764,-0.00264567 0.025874,-0.00609843 0.0383386,-0.010252 0.00839764,-0.00279528 0.0176575,-0.000200787 0.023374,0.00655906l0.0741417 0.0876339 0.0507677 -0.0293071 -0.0388661 -0.108142c-0.00298819,-0.00832677 -0.00061811,-0.0176299 0.006,-0.0235039 0.0098937,-0.0087874 0.0193268,-0.0182205 0.0280315,-0.0280315 0.00587795,-0.00662205 0.0152008,-0.00899213 0.0235157,-0.006l0.108126 0.0388622 0.029311 -0.0507677 -0.0876457 -0.0741535c-0.00675591,-0.00571654 -0.00935827,-0.0149764 -0.00655118,-0.023374 0.00419685,-0.0125827 0.00764961,-0.0254724 0.0102677,-0.0383189 0.00176772,-0.00868504 0.00864961,-0.0154094 0.0173661,-0.0169843l0.112976 -0.0203898 0 -0.0293071c0,-0.0119606 0.00969291,-0.0216496 0.0216496,-0.0216496l0.182457 -3.93701e-006c0.0492598,0 0.0893346,0.0400748 0.0893346,0.0893346l0 0.795311c-7.87402e-006,0.049252 -0.0400827,0.0893268 -0.0893425,0.0893268zm-1.31987 -0.930681c-0.0253819,0 -0.0460354,0.0206535 -0.0460354,0.0460354l0 0.795311c0,0.0253819 0.0206535,0.0460354 0.0460354,0.0460354l1.31987 0c0.0253858,0 0.0460394,-0.0206535 0.0460394,-0.0460354l0 -0.795311c0,-0.0253819 -0.0206535,-0.0460354 -0.0460394,-0.0460354l-0.160803 0 0 0.025752c0,0.0104764 -0.00749606,0.0194449 -0.0178031,0.0213071l-0.116657 0.0210551c-0.00122441,0.00496063 -0.00255118,0.00990551 -0.00398031,0.0148268l0.0905118 0.0765709c0.00799213,0.00676378 0.0100039,0.0182835 0.00476378,0.0273543l-0.0474016 0.0821024c-0.00524016,0.00907087 -0.0162362,0.0130827 -0.0260709,0.00954724l-0.111657 -0.0401299c-0.00351969,0.00366142 -0.00712205,0.00726378 -0.0107913,0.0107874l0.0401339 0.111669c0.00353937,0.00985433 -0.000480315,0.0208346 -0.00955118,0.0260709l-0.0821024 0.0474016c-0.00906693,0.00523228 -0.0205866,0.00323228 -0.0273543,-0.00476772l-0.076563 -0.0905c-0.00490945,0.00141732 -0.00985433,0.00274016 -0.0148228,0.00396063l-0.0210591 0.116669c-0.0018622,0.0103071 -0.0108307,0.0178071 -0.0213031,0.0178071l-0.0948031 -3.93701e-006c-0.0104764,0 -0.0194449,-0.00749606 -0.0213071,-0.0178071l-0.0210551 -0.116661c-0.00496063,-0.00121654 -0.00990945,-0.00254724 -0.0148307,-0.00397244l-0.0765709 0.0905118c-0.00676378,0.00799606 -0.0182874,0.0100039 -0.0273543,0.00476378l-0.0821024 -0.0474016c-0.00907087,-0.00523622 -0.0130906,-0.0162165 -0.00955118,-0.0260748l0.0401339 -0.111654c-0.00366142,-0.00351969 -0.00726378,-0.00712598 -0.0107913,-0.0107953l-0.111665 0.0401339c-0.00985433,0.00353543 -0.0208346,-0.000480315 -0.0260709,-0.00955118l-0.0473976 -0.0820984c-0.00523622,-0.00907087 -0.00323228,-0.0205906 0.00476378,-0.0273504l0.0905 -0.0765669c-0.00142126,-0.00490551 -0.00274409,-0.00985039 -0.00396457,-0.0148268l-0.116673 -0.0210591c-0.0103071,-0.0018622 -0.0178031,-0.0108307 -0.0178031,-0.0213031l0 -0.0257638 -0.160815 3.93701e-006 0 -7.87402e-006z"/>
    </g>
    <g id="_486326248">
     <path id="_454374192" class="fil0" d="M1.58095 1.23641l-1.45524 0c-0.0119567,0 -0.0216496,-0.00968898 -0.0216496,-0.0216496 0,-0.0119567 0.00969291,-0.0216457 0.0216496,-0.0216457l1.45524 0c0.0119606,0 0.0216496,0.00968898 0.0216496,0.0216457 0,0.0119606 -0.00969291,0.0216496 -0.0216496,0.0216496z"/>
    </g>
    <g id="_486326608">
     <path id="_454383192" class="fil0" d="M0.896157 1.34428l-0.0856654 0c-0.0119567,0 -0.0216496,-0.00968898 -0.0216496,-0.0216457 0,-0.0119606 0.00969291,-0.0216496 0.0216496,-0.0216496l0.0856654 0c0.0119567,0 0.0216457,0.00968898 0.0216457,0.0216496 0,0.0119567 -0.00969291,0.0216457 -0.0216457,0.0216457z"/>
    </g>
    <g id="_486326464">
     <path id="_454382184" class="fil0" d="M1.04052 1.70596l-0.374386 0c-0.0119567,0 -0.0216496,-0.00969291 -0.0216496,-0.0216496l0 -0.253799c0,-0.0119567 0.00969291,-0.0216496 0.0216496,-0.0216496l0.374386 0c0.0119567,0 0.0216496,0.00969291 0.0216496,0.0216496l0 0.253799c0,0.0119567 -0.00969291,0.0216496 -0.0216496,0.0216496zm-0.352736 -0.0432992l0.331091 0 0 -0.210504 -0.331091 3.93701e-006 0 0.2105z"/>
    </g>
    <g id="_486326728">
     <path id="_454382424" class="fil0" d="M1.14252 1.70596l-0.57839 0c-0.0119567,0 -0.0216457,-0.00969291 -0.0216457,-0.0216496 0,-0.0119567 0.00968898,-0.0216496 0.0216457,-0.0216496l0.57839 0c0.0119567,0 0.0216496,0.00969291 0.0216496,0.0216496 0,0.0119567 -0.00969291,0.0216496 -0.0216496,0.0216496z"/>
    </g>
    <g id="_486327256">
     <path id="_454382064" class="fil0" d="M0.853327 0.735591c-0.13,0 -0.235764,-0.10576 -0.235764,-0.23576 0,-0.13 0.105764,-0.23576 0.235764,-0.23576 0.129996,0 0.23576,0.10576 0.23576,0.23576 0,0.13 -0.105764,0.23576 -0.23576,0.23576zm0 -0.42822c-0.106126,0 -0.192465,0.0863386 -0.192465,0.192461 0,0.106122 0.0863386,0.192461 0.192465,0.192461 0.106122,0 0.192461,-0.0863386 0.192461,-0.192461 0,-0.106122 -0.0863386,-0.192461 -0.192461,-0.192461z"/>
    </g>
    <g id="_486326320">
     <path id="_454382328" class="fil0" d="M0.900732 0.998965l-0.0948071 0c-0.0104764,0 -0.0194449,-0.00749606 -0.0213071,-0.0178071l-0.0210551 -0.116657c-0.00495669,-0.00122047 -0.00990551,-0.00255118 -0.0148268,-0.00397638l-0.0765709 0.0905118c-0.00676378,0.00799606 -0.0182835,0.0100039 -0.0273504,0.00476378l-0.0821063 -0.0474016c-0.00907087,-0.00523622 -0.0130906,-0.0162126 -0.00954724,-0.0260669l0.0401339 -0.111661c-0.00366142,-0.00351969 -0.00726378,-0.00711811 -0.0107874,-0.0107913l-0.111673 0.0401339c-0.00985433,0.00353543 -0.0208346,-0.000480315 -0.0260709,-0.00955118l-0.0474016 -0.0821063c-0.00523622,-0.00907087 -0.00323228,-0.0205906 0.00476378,-0.0273504l0.0905039 -0.0765669c-0.00142126,-0.00490157 -0.00274409,-0.00985039 -0.00396457,-0.0148268l-0.116673 -0.0210551c-0.0103071,-0.0018622 -0.0178031,-0.0108307 -0.0178031,-0.0213031l3.93701e-006 -0.0948228c0,-0.0104724 0.00749606,-0.0194409 0.0178031,-0.0213031l0.116665 -0.0210551c0.00121654,-0.00494882 0.00254331,-0.00989764 0.00397244,-0.0148189l-0.0905118 -0.0765748c-0.00799606,-0.00676378 -0.01,-0.0182795 -0.00476772,-0.0273543l0.0474094 -0.0821063c0.00524016,-0.00906693 0.0162126,-0.0130906 0.0260709,-0.00954724l0.111661 0.040126c0.00352362,-0.00366142 0.00712205,-0.00726378 0.0107874,-0.0107835l-0.0401299 -0.111665c-0.00354331,-0.00985433 0.000476378,-0.0208346 0.00954724,-0.0260709l0.0821063 -0.0474016c0.00907087,-0.00524016 0.0205866,-0.00322835 0.0273504,0.00476378l0.0765669 0.0905c0.00491732,-0.0014252 0.00986614,-0.00275197 0.0148268,-0.0039685l0.021063 -0.116665c0.0018622,-0.0103071 0.0108346,-0.0178031 0.0213071,-0.0178031l0.0948071 0c0.0104724,0 0.0194449,0.0075 0.0213031,0.0178031l0.0210591 0.116661c0.00495669,0.00121654 0.00990157,0.00254331 0.0148189,0.0039685l0.0765669 -0.0905c0.00676772,-0.00799606 0.0182874,-0.01 0.0273543,-0.00476772l0.0821024 0.0474094c0.0090748,0.00523622 0.0130945,0.0162165 0.00955118,0.0260709l-0.0401299 0.111657c0.00366142,0.00351969 0.00726378,0.00712205 0.0107874,0.0107953l0.111665 -0.0401339c0.00984646,-0.00354331 0.0208307,0.000480315 0.0260709,0.00954724l0.0474016 0.0821063c0.00523622,0.00907087 0.00322835,0.0205906 -0.00476772,0.0273504l-0.0905039 0.076563c0.0014252,0.00491339 0.00274409,0.0098622 0.0039685,0.0148346l0.116661 0.0210591c0.010311,0.0018622 0.0178071,0.0108307 0.0178071,0.0213071l0 0.0948071c0,0.0104764 -0.00749606,0.0194449 -0.0178071,0.0213071l-0.116661 0.0210512c-0.00121654,0.00495669 -0.00254724,0.00990551 -0.00397244,0.0148268l0.0905118 0.0765669c0.00799213,0.00676378 0.0100039,0.0182835 0.00476378,0.0273504l-0.0474016 0.0821063c-0.00524016,0.0090748 -0.0162362,0.0130827 -0.0260709,0.00955118l-0.111661 -0.0401339c-0.00351575,0.00366142 -0.00712205,0.00726378 -0.0107874,0.0107874l0.0401339 0.111673c0.00353937,0.00985433 -0.000480315,0.0208307 -0.00955118,0.0260669l-0.0821024 0.0474016c-0.00906693,0.00523622 -0.0205866,0.00323228 -0.0273504,-0.00476378l-0.0765669 -0.0905039c-0.00490945,0.00142126 -0.00985433,0.00274016 -0.0148268,0.00396457l-0.0210591 0.116665c-0.00185827,0.010311 -0.0108307,0.0178071 -0.0213031,0.0178071zm-0.0767126 -0.0432992l0.058626 0 0.0203937 -0.112988c0.0015748,-0.00871654 0.00829921,-0.0155984 0.0169764,-0.0173661 0.0129567,-0.00264173 0.0258583,-0.00609055 0.0383386,-0.010252 0.0083937,-0.00279528 0.0176535,-0.000200787 0.0233701,0.00655906l0.0741457 0.0876339 0.0507677 -0.0293071 -0.0388661 -0.108134c-0.00299213,-0.00833071 -0.00061811,-0.0176378 0.006,-0.0235118 0.00988583,-0.00878346 0.0193189,-0.0182126 0.0280276,-0.0280276 0.00587795,-0.00662205 0.015189,-0.00899606 0.0235157,-0.00600394l0.108126 0.0388622 0.029315 -0.0507677 -0.0876457 -0.0741457c-0.00675591,-0.00571654 -0.00935433,-0.0149724 -0.00655906,-0.0233701 0.00420079,-0.0126024 0.00765354,-0.0255 0.0102717,-0.0383346 0.00177165,-0.0086811 0.00865354,-0.0154055 0.0173701,-0.0169803l0.112976 -0.0203898 0 -0.058626 -0.112988 -0.0203976c-0.0087126,-0.0015748 -0.0155945,-0.00829921 -0.0173661,-0.0169764 -0.00264173,-0.0129528 -0.00609055,-0.0258543 -0.010252,-0.0383425 -0.00279921,-0.00839764 -0.000204724,-0.0176535 0.00655906,-0.0233701l0.0876339 -0.0741378 -0.029311 -0.0507717 -0.108134 0.0388661c-0.00831102,0.00298425 -0.0176339,0.000614173 -0.0235118,-0.006 -0.0087874,-0.0098937 -0.0182165,-0.0193307 -0.0280236,-0.0280394 -0.00661811,-0.00587402 -0.00899213,-0.015185 -0.006,-0.0235118l0.0388583 -0.108114 -0.0507717 -0.029315 -0.0741457 0.0876417c-0.00572047,0.00675591 -0.0149724,0.00935827 -0.0233701,0.00655512 -0.0125866,-0.00418898 -0.0254803,-0.00764173 -0.0383307,-0.0102638 -0.00867717,-0.00176772 -0.0154016,-0.00864961 -0.0169764,-0.0173661l-0.0203976 -0.112972 -0.0586299 0 -0.0203976 0.112988c-0.0015748,0.00871654 -0.00830315,0.0155984 -0.0169882,0.0173661 -0.012878,0.00262205 -0.0257677,0.00607087 -0.0383228,0.0102559 -0.00840157,0.00279134 -0.0176535,0.000200787 -0.0233701,-0.00655906l-0.0741417 -0.0876378 -0.0507677 0.029315 0.0388622 0.10813c0.00298819,0.00832677 0.000614173,0.0176378 -0.006,0.0235157 -0.0098622,0.00875197 -0.0192913,0.0181811 -0.0280315,0.0280236 -0.00587795,0.00661417 -0.0151811,0.00898819 -0.0235079,0.00599606l-0.108126 -0.0388583 -0.029315 0.0507717 0.0876496 0.0741535c0.00675591,0.00571654 0.00935433,0.0149724 0.00655512,0.0233701 -0.00419685,0.0126102 -0.00765354,0.0255039 -0.0102598,0.0383189 -0.00176772,0.00868504 -0.00864961,0.0154134 -0.0173701,0.0169882l-0.112984 0.0203937 0 0.058626 0.112992 0.0203937c0.00871654,0.00157087 0.0155945,0.00829134 0.0173661,0.0169685 0.00265354,0.0129961 0.00610236,0.0258976 0.010248,0.0383386 0.00279921,0.00839764 0.000204724,0.0176535 -0.00655512,0.023374l-0.0876378 0.0741417 0.029311 0.0507717 0.108134 -0.0388622c0.00832677,-0.00298819 0.0176339,-0.00061811 0.0235079,0.00599606 0.00879528,0.00990157 0.0182283,0.0193346 0.0280276,0.0280315 0.00661811,0.00587795 0.00899606,0.015189 0.00600394,0.0235157l-0.0388622 0.108126 0.0507677 0.0293071 0.0741457 -0.0876457c0.00571654,-0.00675984 0.0149685,-0.00935827 0.023374,-0.00655512 0.0125984,0.00420079 0.0254921,0.00765354 0.0383268,0.0102677 0.00867717,0.00177165 0.0154055,0.00864961 0.0169803,0.0173701l0.0203937 0.112969z"/>
    </g>
   </g>
  </g>
 </g>
</svg>
